<?xml version="1.0" encoding="UTF-8" standalone="no"?>
<!DOCTYPE svg PUBLIC "-//W3C//DTD SVG 1.1//EN" "http://www.w3.org/Graphics/SVG/1.1/DTD/svg11.dtd">
<svg width="100%" height="100%" viewBox="0 0 400 200" version="1.1" xmlns="http://www.w3.org/2000/svg" xmlns:xlink="http://www.w3.org/1999/xlink" xml:space="preserve" xmlns:serif="http://www.serif.com/" style="fill-rule:evenodd;clip-rule:evenodd;stroke-linejoin:round;stroke-miterlimit:2;">
    <g transform="matrix(1.58122,0,0,1.58122,200,100)">
        <g id="Tomorros-Warehouse-Sponsors" serif:id="Tomorros Warehouse Sponsors">
            <g id="tgw.svg" transform="matrix(1,0,0,1,-95,-24.5)">
                <clipPath id="_clip1">
                    <rect x="0" y="0" width="190" height="49"/>
                </clipPath>
                <g clip-path="url(#_clip1)">
                    <g id="Path_4" transform="matrix(1,0,0,1,0,-0.001)">
                        <path d="M0,34.02L1.683,34.02L1.683,0L0,0L0,34.02ZM6.733,34.02L9.256,34.02L9.256,0L6.733,0L6.733,34.02ZM13.466,34.02L16.832,34.02L16.832,0L13.465,0L13.466,34.02ZM20.199,34.02L24.4,34.02L24.4,0L20.2,0L20.199,34.02ZM26.93,34.02L32.822,34.02L32.822,0L26.929,0L26.93,34.02ZM35.455,34.02L189.955,34.02L189.955,0L35.453,0L35.455,34.02Z" style="fill:rgb(29,29,27);fill-rule:nonzero;"/>
                    </g>
                    <g id="Path_5" transform="matrix(1,0,0,1,10.039,0.332)">
                        <path d="M61.9,32.172L51.489,32.172L51.489,8.191L36.206,8.191L36.206,1.2L77.127,1.2L77.127,8.191L61.9,8.191L61.9,32.172Z" style="fill:white;fill-rule:nonzero;"/>
                    </g>
                    <g id="Path_6" transform="matrix(1,0,0,1,28.159,0.332)">
                        <path d="M147.519,32.172L156.637,1.2L143.678,1.2L139.6,20.443L139.5,20.443L134.884,1.2L123.362,1.2L118.7,20.443L118.605,20.443L114.523,1.2L101.556,1.2L110.636,32.175L124.731,32.175L129.051,14.824L129.151,14.824L133.427,32.175L147.519,32.172Z" style="fill:white;fill-rule:nonzero;"/>
                    </g>
                    <g id="Path_7" transform="matrix(1,0,0,1,16.178,0.331)">
                        <path d="M105.627,13.961L102.967,13.961L102.967,19.914L104.321,19.914L104.321,25.673L102.967,25.673L102.967,32.173L105.628,32.173L105.627,13.961ZM58.346,32.173L59.038,32.173L59.038,8.194L58.346,8.194L58.346,32.173ZM61.622,32.173L62.475,32.173L62.475,8.194L61.622,8.194L61.622,32.173ZM65.055,32.173L66.027,32.173L66.027,8.194L65.055,8.194L65.055,32.173ZM68.585,32.173L69.66,32.173L69.66,8.194L68.586,8.194L68.585,32.173ZM72.064,32.173L73.3,32.173L73.3,1.2L72.065,1.2L72.064,32.173ZM75.372,32.173L76.984,32.173L76.984,1.2L75.373,1.2L75.372,32.173ZM78.91,32.173L80.51,32.173L80.51,25.673L79.716,25.673L79.716,8.192L80.51,8.192L80.51,1.2L78.91,1.2L78.91,32.173ZM82.263,8.192L84.063,8.192L84.063,1.192L82.263,1.192L82.263,8.192ZM82.243,32.173L84.076,32.173L84.076,25.673L82.243,25.673L82.243,32.173ZM85.719,8.192L87.736,8.192L87.736,1.192L85.719,1.192L85.719,8.192ZM85.692,32.173L87.751,32.173L87.751,25.673L85.692,25.673L85.692,32.173ZM89.212,8.192L91.43,8.192L91.43,1.192L89.212,1.192L89.212,8.192ZM89.188,32.173L91.448,32.173L91.448,25.673L89.188,25.673L89.188,32.173ZM92.7,8.192L94.919,8.192L94.919,1.192L92.7,1.192L92.7,8.192ZM92.7,19.914L94.922,19.914L94.922,13.971L92.7,13.971L92.7,19.914ZM92.677,32.173L94.93,32.173L94.93,25.673L92.673,25.673L92.677,32.173ZM96.2,8.192L98.47,8.192L98.47,1.192L96.2,1.192L96.2,8.192ZM96.2,19.915L98.477,19.915L98.477,13.971L96.2,13.971L96.2,19.915ZM96.181,32.173L98.489,32.173L98.489,25.673L96.176,25.673L96.181,32.173ZM99.613,8.192L101.973,8.192L101.973,1.192L99.613,1.192L99.613,8.192ZM99.613,19.915L101.98,19.915L101.98,13.964L99.609,13.964L99.613,19.915ZM99.593,32.173L101.993,32.173L101.993,25.673L99.593,25.673L99.593,32.173ZM102.971,8.195L105.633,8.195L105.633,1.195L102.971,1.195L102.971,8.195ZM106.66,8.195L109.327,8.195L109.327,1.195L106.66,1.195L106.66,8.195ZM106.66,32.176L109.43,32.176L109.43,13.963L106.66,13.963L106.66,32.176ZM110.22,8.195L112.971,8.195L112.971,1.195L110.22,1.195L110.22,8.195ZM110.22,32.176L112.993,32.176L112.993,13.963L110.22,13.963L110.22,32.176ZM113.8,8.19L115.587,8.19L113.8,2.09L113.8,8.19ZM113.8,32.172L116.683,32.172L116.683,13.963L113.8,13.963L113.8,32.172ZM117.293,32.172L120.205,32.172L120.205,23.956L117.293,14.014L117.293,32.172ZM122.621,32.172L120.8,25.986L120.8,32.173L122.621,32.172Z" style="fill:rgb(227,6,19);fill-rule:nonzero;"/>
                    </g>
                    <g id="Path_8" transform="matrix(1,0,0,1,13.348,8.614)">
                        <path d="M168.689,33.616C168.689,36.956 174.689,35.2 174.689,37.216C174.689,38.109 173.718,38.416 172.68,38.416C171.275,38.416 170.38,37.901 170.339,36.825L168.5,36.825C168.523,38.542 169.7,39.694 172.631,39.694C174.366,39.694 176.545,39.146 176.545,37.042C176.545,33.564 170.473,35.398 170.473,33.485C170.473,32.72 171.227,32.366 172.373,32.366C173.801,32.366 174.373,33.051 174.428,33.679L176.276,33.679C176.059,31.317 173.549,31.09 172.293,31.09C170.307,31.09 168.699,31.796 168.699,33.61M166.349,34.329C166.166,32.571 164.705,31.09 161.898,31.09C161.741,31.072 161.583,31.063 161.425,31.063C159.183,31.063 157.339,32.907 157.339,35.149C157.339,35.229 157.341,35.31 157.346,35.39C157.341,35.476 157.338,35.561 157.338,35.647C157.338,37.871 159.168,39.701 161.392,39.701C161.492,39.701 161.593,39.697 161.693,39.69C165.048,39.69 166.11,37.967 166.35,36.346L164.49,36.346C164.346,37.59 163.228,38.511 161.979,38.413C161.937,38.415 161.895,38.416 161.853,38.416C160.349,38.416 159.112,37.179 159.112,35.675C159.112,35.629 159.113,35.583 159.115,35.537C159.115,33.413 160.29,32.363 161.865,32.363C163.117,32.212 164.281,33.083 164.49,34.326L166.349,34.329ZM153.022,39.465L154.732,39.465L154.732,31.323L153.022,31.323L153.022,39.465ZM146.022,39.465L147.732,39.465L147.732,32.6L150.791,32.6L150.791,31.323L142.963,31.323L142.963,32.6L146.022,32.6L146.022,39.465ZM133.503,33.61C133.503,36.95 139.503,35.194 139.503,37.21C139.503,38.103 138.534,38.41 137.494,38.41C136.094,38.41 135.2,37.895 135.154,36.819L133.306,36.819C133.329,38.536 134.506,39.688 137.437,39.688C139.173,39.688 141.352,39.14 141.352,37.036C141.352,33.558 135.28,35.392 135.28,33.479C135.28,32.714 136.034,32.36 137.18,32.36C138.607,32.36 139.18,33.045 139.235,33.673L141.082,33.673C140.866,31.311 138.356,31.084 137.099,31.084C135.113,31.084 133.505,31.79 133.505,33.604M129.16,39.459L130.87,39.459L130.87,31.323L129.16,31.323L129.16,39.459ZM126.074,35L122.057,35L122.057,36.277L124.364,36.277C124.203,37.513 123.139,38.448 121.892,38.448C121.775,38.448 121.659,38.44 121.544,38.424C121.485,38.428 121.425,38.43 121.366,38.43C119.901,38.43 118.697,37.225 118.697,35.761C118.697,35.659 118.702,35.557 118.714,35.456C118.694,35.323 118.684,35.188 118.684,35.053C118.684,33.577 119.899,32.361 121.376,32.361C121.463,32.361 121.549,32.366 121.636,32.374C122.715,32.262 123.736,32.921 124.078,33.95L125.926,33.95C125.743,32.35 124.158,31.098 121.68,31.098C118.359,31.098 116.934,33.105 116.934,35.398C116.934,37.691 118.279,39.698 121.726,39.698C122.898,39.74 124.033,39.269 124.831,38.409L125.071,39.469L126.071,39.469L126.074,35ZM109.984,38.424C109.913,38.429 109.841,38.432 109.77,38.432C108.23,38.432 106.962,37.165 106.962,35.624C106.962,35.549 106.965,35.474 106.971,35.399C106.971,33.746 108.332,32.385 109.985,32.385C111.638,32.385 112.999,33.746 112.999,35.399C113.005,35.474 113.008,35.549 113.008,35.624C113.008,37.165 111.74,38.432 110.2,38.432C110.128,38.432 110.056,38.43 109.984,38.424M109.984,39.701C113.431,39.701 114.778,37.693 114.778,35.401C114.778,33.109 113.432,31.101 109.984,31.101C106.536,31.101 105.192,33.108 105.192,35.401C105.192,37.694 106.538,39.701 109.984,39.701M96.634,39.472L103.3,39.472L103.3,38.126L98.346,38.126L98.346,31.326L96.634,31.326L96.634,39.472ZM85.42,35.864L88.7,35.864L88.7,35.907C88.7,37.718 87.211,39.207 85.4,39.207C85.327,39.207 85.253,39.205 85.18,39.2C85.11,39.204 85.039,39.206 84.968,39.206C82.99,39.206 81.361,37.578 81.361,35.599C81.361,35.533 81.363,35.466 81.367,35.4C81.366,35.366 81.366,35.332 81.366,35.298C81.366,33.268 83.036,31.598 85.066,31.598C85.104,31.598 85.142,31.599 85.18,31.6C86.696,31.444 88.118,32.414 88.525,33.883L89.049,33.883C88.626,32.14 86.965,30.962 85.18,31.14C85.117,31.137 85.054,31.136 84.99,31.136C82.714,31.136 80.841,33.009 80.841,35.285C80.841,35.323 80.842,35.362 80.843,35.4C80.839,35.472 80.837,35.544 80.837,35.617C80.837,37.838 82.665,39.667 84.887,39.667C84.985,39.667 85.082,39.663 85.179,39.656C86.703,39.738 88.127,38.863 88.741,37.465L88.763,37.465L88.763,39.473L89.219,39.473L89.219,35.409L85.419,35.409L85.42,35.864ZM71.158,39.471L71.682,39.471L71.682,32.052L71.7,32.052L77.785,39.47L78.445,39.47L78.445,31.323L77.921,31.323L77.921,38.741L77.9,38.741L71.815,31.323L71.155,31.323L71.158,39.471ZM68.001,39.471L68.525,39.471L68.525,31.323L68,31.323L68.001,39.471ZM61.943,39.471L62.537,39.471L66.154,31.323L65.56,31.323L62.24,38.81L58.919,31.323L58.325,31.323L61.943,39.471ZM55.956,39.471L56.48,39.471L56.48,31.323L55.956,31.323L55.956,39.471ZM48.142,39.471L54.007,39.471L54.007,39.016L48.665,39.016L48.665,31.323L48.141,31.323L48.142,39.471Z" style="fill:rgb(29,29,27);fill-rule:nonzero;"/>
                    </g>
                    <rect id="Rectangle_5" x="0" y="0" width="189.953" height="48.313" style="fill:none;"/>
                </g>
            </g>
            <g id="tgw.svg1" serif:id="tgw.svg">
            </g>
        </g>
    </g>
</svg>
