<?xml version="1.0" encoding="UTF-8" standalone="no"?>
<!DOCTYPE svg PUBLIC "-//W3C//DTD SVG 1.1//EN" "http://www.w3.org/Graphics/SVG/1.1/DTD/svg11.dtd">
<svg width="100%" height="100%" viewBox="0 0 1000 200" version="1.1" xmlns="http://www.w3.org/2000/svg" xmlns:xlink="http://www.w3.org/1999/xlink" xml:space="preserve" xmlns:serif="http://www.serif.com/" style="fill-rule:evenodd;clip-rule:evenodd;stroke-linejoin:round;stroke-miterlimit:2;">
    <g transform="matrix(1.82482,0,0,1.82407,0,1.5)">
        <path d="M13.62,41.412L34.054,53.168L47.679,45.332L20.375,29.668L44.269,15.956L57.893,8.12L44.269,0.283L0,25.75L0,59.037L13.62,66.877L13.62,41.412Z" style="fill:rgb(210,34,41);fill-rule:nonzero;"/>
        <path d="M88.539,25.746L64.702,12.035L51.079,19.873L74.918,33.582L74.918,74.709L51.08,88.419L51.08,51.205L37.458,59.038L37.458,88.415L13.593,74.728L0,66.871L0,82.538L44.269,108L88.54,82.542L88.539,25.746Z" style="fill:white;fill-rule:nonzero;"/>
        <path d="M537.19,75.814L537.19,46.689L547.111,46.689L547.111,44.432L524.884,44.432L524.884,46.689L534.806,46.689L534.806,75.814L537.19,75.814ZM501.934,75.814L501.934,48.221L502.828,48.221L517.817,75.814L521.266,75.814L521.266,44.432L518.839,44.432L518.839,72.023L518.284,72.023L503.297,44.432L499.507,44.432L499.507,75.814L501.934,75.814ZM494.143,75.814L494.143,73.557L476.6,73.557L476.6,60.356L491.971,60.356L491.971,58.143L476.6,58.143L476.6,46.689L494.143,46.689L494.143,44.432L474.173,44.432L474.173,75.814L494.143,75.814ZM459.312,75.814L470.383,44.432L467.871,44.432L457.78,73.514L456.843,73.514L446.751,44.432L444.282,44.432L455.31,75.814L459.312,75.814ZM442.153,75.814L442.153,73.557L424.61,73.557L424.61,60.356L439.982,60.356L439.982,58.143L424.61,58.143L424.61,46.689L442.153,46.689L442.153,44.432L422.183,44.432L422.183,75.814L442.153,75.814ZM407.068,75.814L407.068,67.425L391.824,67.425L391.824,63.508L405.279,63.508L405.279,56.737L391.824,56.737L391.824,52.82L407.068,52.82L407.068,44.432L379.689,44.432L379.689,75.814L407.068,75.814ZM372.28,75.814L377.006,71.769L377.006,60.059L372.28,56.057L360.23,56.014L360.23,52.564L375.474,52.564L375.474,44.432L353.204,44.432L348.478,48.477L348.478,59.804L353.204,63.806L365.212,63.849L365.212,67.596L349.798,67.596L349.798,75.814L372.28,75.814ZM341.069,75.814L345.796,71.769L345.796,44.432L333.66,44.432L333.66,69.299L327.997,69.299L327.997,44.432L315.862,44.432L315.862,71.769L320.588,75.814L341.069,75.814ZM294.615,50.946L300.789,50.946L300.789,69.299L294.615,69.299L294.615,50.946ZM308.198,75.814L312.924,71.769L312.924,48.477L308.198,44.432L287.206,44.432L282.479,48.477L282.479,71.769L287.206,75.814L308.198,75.814ZM261.359,75.814L261.359,63.806L267.406,63.806L267.406,75.814L279.542,75.814L279.542,44.432L267.406,44.432L267.406,55.46L261.359,55.46L261.359,44.432L249.225,44.432L249.225,75.814L261.359,75.814ZM246.074,75.814L246.074,67.425L230.83,67.425L230.83,63.508L244.285,63.508L244.285,56.737L230.83,56.737L230.83,52.82L246.074,52.82L246.074,44.432L218.695,44.432L218.695,75.814L246.074,75.814ZM197.746,50.946L203.877,50.946L203.877,59.591L197.746,59.591L197.746,50.946ZM197.746,75.814L197.746,66.105L201.833,66.105L205.027,75.814L216.949,75.814L212.819,64.401L215.544,62.103L215.544,48.477L210.818,44.432L185.61,44.432L185.61,75.814L197.746,75.814ZM165.555,51.627L167.344,51.627L169.217,63.466L163.682,63.466L165.555,51.627ZM161.723,75.814L162.447,71.172L170.452,71.172L171.176,75.814L183.865,75.814L176.967,44.432L155.975,44.432L149.034,75.814L161.723,75.814ZM124.977,75.814L127.915,68.532L130.768,75.814L143.797,75.814L150.142,55.545L150.142,44.432L137.964,44.432L136.303,67.894L134.515,67.894L132.854,44.432L122.891,44.432L121.23,67.894L119.484,67.894L117.824,44.432L105.603,44.432L105.603,55.545L111.99,75.814L124.977,75.814Z" style="fill:white;fill-rule:nonzero;"/>
        <path d="M417.924,38.242L422.65,34.197L422.65,22.488L417.924,18.485L405.874,18.443L405.874,14.995L421.118,14.995L421.118,6.861L398.848,6.861L394.122,10.906L394.122,22.232L398.848,26.235L410.856,26.277L410.856,30.024L395.442,30.024L395.442,38.242L417.924,38.242ZM385.862,19.849L391.695,6.861L381.348,6.861L379.219,19.849L385.862,19.849ZM350.947,38.242L353.885,30.961L356.737,38.242L369.767,38.242L376.111,17.975L376.111,6.861L363.933,6.861L362.273,30.322L360.484,30.322L358.824,6.861L348.86,6.861L347.199,30.322L345.454,30.322L343.793,6.861L331.573,6.861L331.573,17.975L337.96,38.242L350.947,38.242ZM310.325,13.377L316.499,13.377L316.499,31.728L310.325,31.728L310.325,13.377ZM323.908,38.242L328.635,34.197L328.635,10.906L323.908,6.861L302.916,6.861L298.19,10.906L298.19,34.197L302.916,38.242L323.908,38.242ZM277.709,13.377L283.841,13.377L283.841,22.02L277.709,22.02L277.709,13.377ZM277.709,38.242L277.709,28.534L281.797,28.534L284.99,38.242L296.913,38.242L292.783,26.832L295.508,24.531L295.508,10.906L290.781,6.861L265.574,6.861L265.574,38.242L277.709,38.242ZM244.625,13.377L250.756,13.377L250.756,22.02L244.625,22.02L244.625,13.377ZM244.625,38.242L244.625,28.534L248.713,28.534L251.906,38.242L263.828,38.242L259.698,26.832L262.423,24.531L262.423,10.906L257.696,6.861L232.49,6.861L232.49,38.242L244.625,38.242ZM211.242,13.377L217.416,13.377L217.416,31.728L211.242,31.728L211.242,13.377ZM224.825,38.242L229.552,34.197L229.552,10.906L224.825,6.861L203.833,6.861L199.107,10.906L199.107,34.197L203.833,38.242L224.825,38.242ZM171.856,38.242L171.856,21.978L176.285,36.284L180.926,36.284L185.269,22.063L185.269,38.242L196.17,38.242L196.17,6.861L184.46,6.861L178.584,22.147L172.708,6.861L160.956,6.861L160.956,38.242L171.856,38.242ZM139.709,13.377L145.883,13.377L145.883,31.728L139.709,31.728L139.709,13.377ZM153.292,38.242L158.018,34.197L158.018,10.906L153.292,6.861L132.3,6.861L127.573,10.906L127.573,34.197L132.3,38.242L153.292,38.242ZM117.737,38.242L117.737,15.25L126.04,15.25L126.04,6.861L97.299,6.861L97.299,15.25L105.602,15.25L105.602,38.242L117.737,38.242Z" style="fill:rgb(210,34,41);fill-rule:nonzero;"/>
        <path d="M107.539,101.425L105.689,99.576L106.354,98.912L107.934,100.509L112.585,100.509L113.77,99.325L113.77,96.183L112.549,94.907L108.616,94.907L108.616,93.992L112.549,93.992L113.77,92.717L113.77,90.293L112.585,89.107L108.221,89.107L106.641,90.706L105.977,90.042L107.808,88.192L113.015,88.192L114.775,89.97L114.775,92.986L113.375,94.44L114.775,95.913L114.775,99.648L113.015,101.425L107.539,101.425Z" style="fill:white;fill-rule:nonzero;"/>
        <path d="M119.354,100.509L124.095,100.509L125.262,99.325L125.262,90.293L124.095,89.107L119.354,89.107L118.187,90.293L118.187,99.325L119.354,100.509ZM118.941,101.425L117.181,99.648L117.181,89.97L118.941,88.192L124.525,88.192L126.267,89.97L126.267,99.648L124.525,101.425L118.941,101.425Z" style="fill:white;fill-rule:nonzero;"/>
        <path d="M132.964,101.425L132.964,100.473L139.429,100.473L140.596,99.289L140.596,96.236L139.429,95.052L134.222,95.052L132.462,93.292L132.462,89.97L134.222,88.192L140.955,88.192L140.955,89.144L134.652,89.144L133.485,90.329L133.485,92.95L134.652,94.136L139.86,94.136L141.619,95.913L141.619,99.648L139.86,101.425L132.964,101.425Z" style="fill:white;fill-rule:nonzero;"/>
        <path d="M144.151,101.425L144.151,88.192L152.573,88.192L152.573,89.144L145.175,89.144L145.175,93.974L151.657,93.974L151.657,94.907L145.175,94.907L145.175,100.473L152.573,100.473L152.573,101.425L144.151,101.425Z" style="fill:white;fill-rule:nonzero;"/>
        <path d="M155.858,95.231L160.94,95.231L162.107,94.046L162.107,90.293L160.94,89.107L155.858,89.107L155.858,95.231ZM154.835,101.425L154.835,88.192L161.371,88.192L163.131,89.97L163.131,94.387L161.371,96.147L155.858,96.147L155.858,101.425L154.835,101.425Z" style="fill:white;fill-rule:nonzero;"/>
        <path d="M167.889,101.425L167.889,89.144L163.705,89.144L163.705,88.192L173.078,88.192L173.078,89.144L168.894,89.144L168.894,101.425L167.889,101.425Z" style="fill:white;fill-rule:nonzero;"/>
        <path d="M174.604,101.425L174.604,88.192L183.026,88.192L183.026,89.144L175.628,89.144L175.628,93.974L182.11,93.974L182.11,94.907L175.628,94.907L175.628,100.473L183.026,100.473L183.026,101.425L174.604,101.425Z" style="fill:white;fill-rule:nonzero;"/>
        <path d="M185.288,101.425L185.288,88.192L186.904,88.192L191.465,99.756L196.044,88.192L197.642,88.192L197.642,101.425L196.636,101.425L196.636,89.79L196.403,89.79L191.752,101.425L191.178,101.425L186.545,89.79L186.311,89.79L186.311,101.425L185.288,101.425Z" style="fill:white;fill-rule:nonzero;"/>
        <path d="M201.664,100.509L207.59,100.509L208.757,99.325L208.757,96.255L207.464,94.907L201.664,94.907L201.664,100.509ZM201.664,93.974L207.212,93.974L207.985,92.807L207.985,90.293L206.817,89.107L201.664,89.107L201.664,93.974ZM200.64,101.425L200.64,88.192L207.23,88.192L208.99,89.97L208.99,93.059L208.164,94.315L209.78,96.003L209.78,99.648L208.02,101.425L200.64,101.425Z" style="fill:white;fill-rule:nonzero;"/>
        <path d="M212.348,101.425L212.348,88.192L220.769,88.192L220.769,89.144L213.371,89.144L213.371,93.974L219.854,93.974L219.854,94.907L213.371,94.907L213.371,100.473L220.769,100.473L220.769,101.425L212.348,101.425Z" style="fill:white;fill-rule:nonzero;"/>
        <path d="M224.055,94.872L229.388,94.872L230.555,93.687L230.555,90.293L229.388,89.107L224.055,89.107L224.055,94.872ZM223.032,101.425L223.032,88.192L229.801,88.192L231.561,89.97L231.561,94.01L229.801,95.787L229.424,95.787L232.081,101.425L230.987,101.425L228.347,95.787L224.055,95.787L224.055,101.425L223.032,101.425Z" style="fill:white;fill-rule:nonzero;"/>
        <path d="M238.042,101.425L238.042,99.936L245.44,92.124L245.44,90.293L244.255,89.107L240.25,89.107L238.689,90.76L238.006,90.113L239.837,88.192L244.686,88.192L246.446,89.97L246.446,92.52L239.156,100.24L239.156,100.473L246.733,100.473L246.733,101.425L238.042,101.425Z" style="fill:white;fill-rule:nonzero;"/>
        <path d="M251.097,100.509L255.837,100.509L257.004,99.325L257.004,90.293L255.837,89.107L251.097,89.107L249.929,90.293L249.929,99.325L251.097,100.509ZM250.684,101.425L248.924,99.648L248.924,89.97L250.684,88.192L256.268,88.192L258.01,89.97L258.01,99.648L256.268,101.425L250.684,101.425Z" style="fill:white;fill-rule:nonzero;"/>
        <path d="M260.272,101.425L260.272,99.936L267.669,92.124L267.669,90.293L266.485,89.107L262.48,89.107L260.918,90.76L260.236,90.113L262.066,88.192L266.915,88.192L268.675,89.97L268.675,92.52L261.385,100.24L261.385,100.473L268.962,100.473L268.962,101.425L260.272,101.425Z" style="fill:white;fill-rule:nonzero;"/>
        <path d="M273.327,100.509L278.067,100.509L279.234,99.325L279.234,90.293L278.067,89.107L273.327,89.107L272.159,90.293L272.159,99.325L273.327,100.509ZM272.913,101.425L271.154,99.648L271.154,89.97L272.913,88.192L278.497,88.192L280.24,89.97L280.24,99.648L278.497,101.425L272.913,101.425Z" style="fill:white;fill-rule:nonzero;"/>
        <path d="M294.688,99.256L299.16,94.771L294.688,90.297L290.202,94.771L294.688,99.256Z" style="fill:rgb(210,34,41);fill-rule:nonzero;"/>
        <path d="M310.539,94.872L315.872,94.872L317.039,93.687L317.039,90.293L315.872,89.107L310.539,89.107L310.539,94.872ZM309.516,101.425L309.516,88.192L316.285,88.192L318.045,89.97L318.045,94.01L316.285,95.787L315.909,95.787L318.566,101.425L317.471,101.425L314.831,95.787L310.539,95.787L310.539,101.425L309.516,101.425Z" style="fill:white;fill-rule:nonzero;"/>
        <path d="M320.469,101.425L320.469,100.473L322.372,100.473L322.372,89.144L320.469,89.144L320.469,88.192L325.282,88.192L325.282,89.144L323.396,89.144L323.396,100.473L325.282,100.473L325.282,101.425L320.469,101.425Z" style="fill:white;fill-rule:nonzero;"/>
        <path d="M329.196,101.425L327.436,99.648L327.436,89.97L329.196,88.192L334.906,88.192L336.737,90.042L336.109,90.706L334.529,89.107L329.609,89.107L328.441,90.293L328.441,99.325L329.609,100.509L334.636,100.509L336.252,98.876L336.899,99.522L335.013,101.425L329.196,101.425Z" style="fill:white;fill-rule:nonzero;"/>
        <path d="M340.814,100.509L346.003,100.509L347.17,99.325L347.17,90.293L346.003,89.107L340.814,89.107L339.646,90.293L339.646,99.325L340.814,100.509ZM340.401,101.425L338.641,99.648L338.641,89.97L340.401,88.192L346.415,88.192L348.175,89.97L348.175,99.648L346.415,101.425L340.401,101.425Z" style="fill:white;fill-rule:nonzero;"/>
        <path d="M350.868,101.425L350.868,88.192L351.892,88.192L351.892,93.974L359.218,93.974L359.218,88.192L360.242,88.192L360.242,101.425L359.218,101.425L359.218,94.907L351.892,94.907L351.892,101.425L350.868,101.425Z" style="fill:white;fill-rule:nonzero;"/>
        <path d="M368.447,96.829L374.175,96.829L371.499,89.162L371.122,89.162L368.447,96.829ZM365.808,101.425L370.458,88.192L372.164,88.192L376.815,101.425L375.755,101.425L374.481,97.763L368.142,97.763L366.867,101.425L365.808,101.425Z" style="fill:white;fill-rule:nonzero;"/>
        <path d="M379.454,94.872L384.787,94.872L385.954,93.687L385.954,90.293L384.787,89.107L379.454,89.107L379.454,94.872ZM378.431,101.425L378.431,88.192L385.201,88.192L386.96,89.97L386.96,94.01L385.201,95.787L384.824,95.787L387.481,101.425L386.386,101.425L383.746,95.787L379.454,95.787L379.454,101.425L378.431,101.425Z" style="fill:white;fill-rule:nonzero;"/>
        <path d="M389.922,101.425L389.922,88.192L398.344,88.192L398.344,89.144L390.946,89.144L390.946,93.974L397.428,93.974L397.428,94.907L390.946,94.907L390.946,100.473L398.344,100.473L398.344,101.425L389.922,101.425Z" style="fill:white;fill-rule:nonzero;"/>
        <path d="M400.607,101.425L400.607,88.192L402.204,88.192L408.526,99.828L408.759,99.828L408.759,88.192L409.783,88.192L409.783,101.425L408.327,101.425L402.007,89.79L401.63,89.79L401.63,101.425L400.607,101.425Z" style="fill:white;fill-rule:nonzero;"/>
        <path d="M414.037,96.829L419.766,96.829L417.09,89.162L416.713,89.162L414.037,96.829ZM411.399,101.425L416.049,88.192L417.755,88.192L422.406,101.425L421.346,101.425L420.072,97.763L413.733,97.763L412.457,101.425L411.399,101.425Z" style="fill:white;fill-rule:nonzero;"/>
        <path d="M435.781,99.256L440.254,94.771L435.781,90.297L431.295,94.771L435.781,99.256Z" style="fill:rgb(210,34,41);fill-rule:nonzero;"/>
        <path d="M452.082,101.425L450.323,99.648L450.323,89.97L452.082,88.192L457.792,88.192L459.623,90.042L458.995,90.706L457.415,89.107L452.495,89.107L451.327,90.293L451.327,99.325L452.495,100.509L457.523,100.509L459.139,98.876L459.785,99.522L457.9,101.425L452.082,101.425Z" style="fill:white;fill-rule:nonzero;"/>
        <path d="M463.701,100.509L468.89,100.509L470.057,99.325L470.057,90.293L468.89,89.107L463.701,89.107L462.533,90.293L462.533,99.325L463.701,100.509ZM463.287,101.425L461.528,99.648L461.528,89.97L463.287,88.192L469.302,88.192L471.062,89.97L471.062,99.648L469.302,101.425L463.287,101.425Z" style="fill:white;fill-rule:nonzero;"/>
        <path d="M477.041,101.425L472.391,88.192L473.432,88.192L477.688,100.456L478.082,100.456L482.338,88.192L483.398,88.192L478.729,101.425L477.041,101.425Z" style="fill:white;fill-rule:nonzero;"/>
        <path d="M484.995,101.425L484.995,88.192L493.417,88.192L493.417,89.144L486.019,89.144L486.019,93.974L492.501,93.974L492.501,94.907L486.019,94.907L486.019,100.473L493.417,100.473L493.417,101.425L484.995,101.425Z" style="fill:white;fill-rule:nonzero;"/>
        <path d="M495.679,101.425L495.679,88.192L497.277,88.192L503.598,99.828L503.831,99.828L503.831,88.192L504.855,88.192L504.855,101.425L503.4,101.425L497.079,89.79L496.702,89.79L496.702,101.425L495.679,101.425Z" style="fill:white;fill-rule:nonzero;"/>
        <path d="M510.565,101.425L510.565,89.144L506.381,89.144L506.381,88.192L515.754,88.192L515.754,89.144L511.571,89.144L511.571,101.425L510.565,101.425Z" style="fill:white;fill-rule:nonzero;"/>
        <path d="M518.304,94.872L523.637,94.872L524.804,93.687L524.804,90.293L523.637,89.107L518.304,89.107L518.304,94.872ZM517.281,101.425L517.281,88.192L524.05,88.192L525.81,89.97L525.81,94.01L524.05,95.787L523.672,95.787L526.33,101.425L525.236,101.425L522.596,95.787L518.304,95.787L518.304,101.425L517.281,101.425Z" style="fill:white;fill-rule:nonzero;"/>
        <path d="M531.795,101.425L531.795,95.68L527.181,88.192L528.312,88.192L532.172,94.477L532.442,94.477L536.284,88.192L537.434,88.192L532.819,95.68L532.819,101.425L531.795,101.425Z" style="fill:white;fill-rule:nonzero;"/>
    </g>
</svg>
