<?xml version="1.0" encoding="UTF-8" standalone="no"?>
<!DOCTYPE svg PUBLIC "-//W3C//DTD SVG 1.1//EN" "http://www.w3.org/Graphics/SVG/1.1/DTD/svg11.dtd">
<svg width="100%" height="100%" viewBox="0 0 2284 450" version="1.1" xmlns="http://www.w3.org/2000/svg" xmlns:xlink="http://www.w3.org/1999/xlink" xml:space="preserve" xmlns:serif="http://www.serif.com/" style="fill-rule:evenodd;clip-rule:evenodd;stroke-linejoin:round;stroke-miterlimit:2;">
    <g transform="matrix(4.16667,0,0,4.16667,0,0)">
        <path d="M13.62,41.412L34.054,53.168L47.679,45.332L20.375,29.668L44.269,15.956L57.893,8.12L44.269,0.283L0,25.75L0,59.037L13.62,66.877L13.62,41.412Z" style="fill:rgb(210,34,41);fill-rule:nonzero;"/>
        <path d="M88.539,25.746L64.702,12.035L51.079,19.873L74.918,33.582L74.918,74.709L51.08,88.419L51.08,51.205L37.458,59.038L37.458,88.415L13.593,74.728L0,66.871L0,82.538L44.269,108L88.54,82.542L88.539,25.746Z" style="fill:white;fill-rule:nonzero;"/>
        <path d="M537.19,75.814L537.19,46.689L547.111,46.689L547.111,44.432L524.884,44.432L524.884,46.689L534.806,46.689L534.806,75.814L537.19,75.814ZM501.934,75.814L501.934,48.221L502.828,48.221L517.817,75.814L521.266,75.814L521.266,44.432L518.839,44.432L518.839,72.023L518.284,72.023L503.297,44.432L499.507,44.432L499.507,75.814L501.934,75.814ZM494.143,75.814L494.143,73.557L476.6,73.557L476.6,60.356L491.971,60.356L491.971,58.143L476.6,58.143L476.6,46.689L494.143,46.689L494.143,44.432L474.173,44.432L474.173,75.814L494.143,75.814ZM459.312,75.814L470.383,44.432L467.871,44.432L457.78,73.514L456.843,73.514L446.751,44.432L444.282,44.432L455.31,75.814L459.312,75.814ZM442.153,75.814L442.153,73.557L424.61,73.557L424.61,60.356L439.982,60.356L439.982,58.143L424.61,58.143L424.61,46.689L442.153,46.689L442.153,44.432L422.183,44.432L422.183,75.814L442.153,75.814ZM407.068,75.814L407.068,67.425L391.824,67.425L391.824,63.508L405.279,63.508L405.279,56.737L391.824,56.737L391.824,52.82L407.068,52.82L407.068,44.432L379.689,44.432L379.689,75.814L407.068,75.814ZM372.28,75.814L377.006,71.769L377.006,60.059L372.28,56.057L360.23,56.014L360.23,52.564L375.474,52.564L375.474,44.432L353.204,44.432L348.478,48.477L348.478,59.804L353.204,63.806L365.212,63.849L365.212,67.596L349.798,67.596L349.798,75.814L372.28,75.814ZM341.069,75.814L345.796,71.769L345.796,44.432L333.66,44.432L333.66,69.299L327.997,69.299L327.997,44.432L315.862,44.432L315.862,71.769L320.588,75.814L341.069,75.814ZM294.615,50.946L300.789,50.946L300.789,69.299L294.615,69.299L294.615,50.946ZM308.198,75.814L312.924,71.769L312.924,48.477L308.198,44.432L287.206,44.432L282.479,48.477L282.479,71.769L287.206,75.814L308.198,75.814ZM261.359,75.814L261.359,63.806L267.406,63.806L267.406,75.814L279.542,75.814L279.542,44.432L267.406,44.432L267.406,55.46L261.359,55.46L261.359,44.432L249.225,44.432L249.225,75.814L261.359,75.814ZM246.074,75.814L246.074,67.425L230.83,67.425L230.83,63.508L244.285,63.508L244.285,56.737L230.83,56.737L230.83,52.82L246.074,52.82L246.074,44.432L218.695,44.432L218.695,75.814L246.074,75.814ZM197.746,50.946L203.877,50.946L203.877,59.591L197.746,59.591L197.746,50.946ZM197.746,75.814L197.746,66.105L201.833,66.105L205.027,75.814L216.949,75.814L212.819,64.401L215.544,62.103L215.544,48.477L210.818,44.432L185.61,44.432L185.61,75.814L197.746,75.814ZM165.555,51.627L167.344,51.627L169.217,63.466L163.682,63.466L165.555,51.627ZM161.723,75.814L162.447,71.172L170.452,71.172L171.176,75.814L183.865,75.814L176.967,44.432L155.975,44.432L149.034,75.814L161.723,75.814ZM124.977,75.814L127.915,68.532L130.768,75.814L143.797,75.814L150.142,55.545L150.142,44.432L137.964,44.432L136.303,67.894L134.515,67.894L132.854,44.432L122.891,44.432L121.23,67.894L119.484,67.894L117.824,44.432L105.603,44.432L105.603,55.545L111.99,75.814L124.977,75.814Z" style="fill:white;fill-rule:nonzero;"/>
        <path d="M417.924,38.242L422.65,34.197L422.65,22.488L417.924,18.485L405.874,18.443L405.874,14.995L421.118,14.995L421.118,6.861L398.848,6.861L394.122,10.906L394.122,22.232L398.848,26.235L410.856,26.277L410.856,30.024L395.442,30.024L395.442,38.242L417.924,38.242ZM385.862,19.849L391.695,6.861L381.348,6.861L379.219,19.849L385.862,19.849ZM350.947,38.242L353.885,30.961L356.737,38.242L369.767,38.242L376.111,17.975L376.111,6.861L363.933,6.861L362.273,30.322L360.484,30.322L358.824,6.861L348.86,6.861L347.199,30.322L345.454,30.322L343.793,6.861L331.573,6.861L331.573,17.975L337.96,38.242L350.947,38.242ZM310.325,13.377L316.499,13.377L316.499,31.728L310.325,31.728L310.325,13.377ZM323.908,38.242L328.635,34.197L328.635,10.906L323.908,6.861L302.916,6.861L298.19,10.906L298.19,34.197L302.916,38.242L323.908,38.242ZM277.709,13.377L283.841,13.377L283.841,22.02L277.709,22.02L277.709,13.377ZM277.709,38.242L277.709,28.534L281.797,28.534L284.99,38.242L296.913,38.242L292.783,26.832L295.508,24.531L295.508,10.906L290.781,6.861L265.574,6.861L265.574,38.242L277.709,38.242ZM244.625,13.377L250.756,13.377L250.756,22.02L244.625,22.02L244.625,13.377ZM244.625,38.242L244.625,28.534L248.713,28.534L251.906,38.242L263.828,38.242L259.698,26.832L262.423,24.531L262.423,10.906L257.696,6.861L232.49,6.861L232.49,38.242L244.625,38.242ZM211.242,13.377L217.416,13.377L217.416,31.728L211.242,31.728L211.242,13.377ZM224.825,38.242L229.552,34.197L229.552,10.906L224.825,6.861L203.833,6.861L199.107,10.906L199.107,34.197L203.833,38.242L224.825,38.242ZM171.856,38.242L171.856,21.978L176.285,36.284L180.926,36.284L185.269,22.063L185.269,38.242L196.17,38.242L196.17,6.861L184.46,6.861L178.584,22.147L172.708,6.861L160.956,6.861L160.956,38.242L171.856,38.242ZM139.709,13.377L145.883,13.377L145.883,31.728L139.709,31.728L139.709,13.377ZM153.292,38.242L158.018,34.197L158.018,10.906L153.292,6.861L132.3,6.861L127.573,10.906L127.573,34.197L132.3,38.242L153.292,38.242ZM117.737,38.242L117.737,15.25L126.04,15.25L126.04,6.861L97.299,6.861L97.299,15.25L105.602,15.25L105.602,38.242L117.737,38.242Z" style="fill:rgb(210,34,41);fill-rule:nonzero;"/>
        <path d="M107.988,95.544L112.315,95.544L113.77,94L113.77,90.391L112.602,89.205L107.988,89.205L106.803,90.391L106.821,94.359L107.988,95.544ZM107.521,101.523L105.689,99.674L106.354,99.01L107.934,100.607L112.602,100.607L113.77,99.423L113.77,95.06L112.441,96.46L107.557,96.46L105.797,94.7L105.797,90.067L107.557,88.29L113.034,88.29L114.793,90.067L114.793,99.746L113.034,101.523L107.521,101.523Z" style="fill:white;fill-rule:nonzero;"/>
        <path d="M122.639,101.523L120.88,99.746L120.88,96.73L121.886,96.73L121.904,99.423L123.071,100.607L126.105,100.607L127.272,99.423L127.272,88.29L128.296,88.29L128.296,99.746L126.536,101.523L122.639,101.523Z" style="fill:white;fill-rule:nonzero;"/>
        <path d="M132.839,101.523L131.079,99.746L131.079,88.29L132.085,88.29L132.085,99.423L133.252,100.607L138.405,100.607L139.573,99.423L139.573,88.29L140.596,88.29L140.596,99.746L138.836,101.523L132.839,101.523Z" style="fill:white;fill-rule:nonzero;"/>
        <path d="M143.397,101.523L143.397,88.29L144.995,88.29L151.315,99.926L151.549,99.926L151.549,88.29L152.573,88.29L152.573,101.523L151.118,101.523L144.797,89.888L144.42,89.888L144.42,101.523L143.397,101.523Z" style="fill:white;fill-rule:nonzero;"/>
        <path d="M155.571,101.523L155.571,88.29L163.992,88.29L163.992,89.241L156.594,89.241L156.594,94.071L163.076,94.071L163.076,95.005L156.594,95.005L156.594,100.571L163.992,100.571L163.992,101.523L155.571,101.523Z" style="fill:white;fill-rule:nonzero;"/>
        <path d="M169.809,101.523L169.809,100.033L177.207,92.222L177.207,90.391L176.022,89.205L172.018,89.205L170.456,90.857L169.774,90.211L171.605,88.29L176.453,88.29L178.213,90.067L178.213,92.617L170.923,100.337L170.923,100.571L178.5,100.571L178.5,101.523L169.809,101.523Z" style="fill:white;fill-rule:nonzero;"/>
        <path d="M182.882,100.607L187.622,100.607L188.789,99.423L188.789,90.391L187.622,89.205L182.882,89.205L181.715,90.391L181.715,99.423L182.882,100.607ZM182.469,101.523L180.709,99.746L180.709,90.067L182.469,88.29L188.053,88.29L189.795,90.067L189.795,99.746L188.053,101.523L182.469,101.523Z" style="fill:white;fill-rule:nonzero;"/>
        <path d="M192.075,101.523L192.075,100.033L199.473,92.222L199.473,90.391L198.288,89.205L194.284,89.205L192.722,90.857L192.039,90.211L193.871,88.29L198.719,88.29L200.479,90.067L200.479,92.617L193.188,100.337L193.188,100.571L200.766,100.571L200.766,101.523L192.075,101.523Z" style="fill:white;fill-rule:nonzero;"/>
        <path d="M202.544,101.523L202.544,100.571L204.842,100.571L204.842,89.241L202.723,89.241L202.723,88.29L205.866,88.29L205.866,100.571L208.164,100.571L208.164,101.523L202.544,101.523Z" style="fill:white;fill-rule:nonzero;"/>
        <path d="M217.487,94.882L221.961,90.407L226.436,94.882L221.961,99.356L217.487,94.882Z" style="fill:rgb(210,34,41);fill-rule:nonzero;"/>
        <path d="M237.858,94.97L243.191,94.97L244.358,93.784L244.358,90.391L243.191,89.205L237.858,89.205L237.858,94.97ZM236.835,101.523L236.835,88.29L243.604,88.29L245.364,90.067L245.364,94.107L243.604,95.885L243.227,95.885L245.885,101.523L244.789,101.523L242.15,95.885L237.858,95.885L237.858,101.523L236.835,101.523Z" style="fill:white;fill-rule:nonzero;"/>
        <path d="M247.805,101.523L247.805,100.571L249.709,100.571L249.709,89.241L247.805,89.241L247.805,88.29L252.618,88.29L252.618,89.241L250.732,89.241L250.732,100.571L252.618,100.571L252.618,101.523L247.805,101.523Z" style="fill:white;fill-rule:nonzero;"/>
        <path d="M256.532,101.523L254.773,99.746L254.773,90.067L256.532,88.29L262.243,88.29L264.074,90.14L263.446,90.804L261.864,89.205L256.945,89.205L255.778,90.391L255.778,99.423L256.945,100.607L261.972,100.607L263.589,98.974L264.236,99.62L262.35,101.523L256.532,101.523Z" style="fill:white;fill-rule:nonzero;"/>
        <path d="M268.168,100.607L273.357,100.607L274.524,99.423L274.524,90.391L273.357,89.205L268.168,89.205L267.001,90.391L267.001,99.423L268.168,100.607ZM267.755,101.523L265.995,99.746L265.995,90.067L267.755,88.29L273.77,88.29L275.531,90.067L275.531,99.746L273.77,101.523L267.755,101.523Z" style="fill:white;fill-rule:nonzero;"/>
        <path d="M278.224,101.523L278.224,88.29L279.247,88.29L279.247,94.071L286.573,94.071L286.573,88.29L287.596,88.29L287.596,101.523L286.573,101.523L286.573,95.005L279.247,95.005L279.247,101.523L278.224,101.523Z" style="fill:white;fill-rule:nonzero;"/>
        <path d="M295.838,96.927L301.566,96.927L298.891,89.26L298.513,89.26L295.838,96.927ZM293.199,101.523L297.849,88.29L299.555,88.29L304.205,101.523L303.146,101.523L301.871,97.86L295.533,97.86L294.258,101.523L293.199,101.523Z" style="fill:white;fill-rule:nonzero;"/>
        <path d="M306.863,94.97L312.196,94.97L313.363,93.784L313.363,90.391L312.196,89.205L306.863,89.205L306.863,94.97ZM305.839,101.523L305.839,88.29L312.609,88.29L314.368,90.067L314.368,94.107L312.609,95.885L312.232,95.885L314.889,101.523L313.793,101.523L311.154,95.885L306.863,95.885L306.863,101.523L305.839,101.523Z" style="fill:white;fill-rule:nonzero;"/>
        <path d="M317.349,101.523L317.349,88.29L325.77,88.29L325.77,89.241L318.372,89.241L318.372,94.071L324.855,94.071L324.855,95.005L318.372,95.005L318.372,100.571L325.77,100.571L325.77,101.523L317.349,101.523Z" style="fill:white;fill-rule:nonzero;"/>
        <path d="M328.05,101.523L328.05,88.29L329.649,88.29L335.969,99.926L336.202,99.926L336.202,88.29L337.226,88.29L337.226,101.523L335.772,101.523L329.451,89.888L329.074,89.888L329.074,101.523L328.05,101.523Z" style="fill:white;fill-rule:nonzero;"/>
        <path d="M341.499,96.927L347.228,96.927L344.552,89.26L344.175,89.26L341.499,96.927ZM338.86,101.523L343.511,88.29L345.216,88.29L349.868,101.523L348.808,101.523L347.533,97.86L341.195,97.86L339.919,101.523L338.86,101.523Z" style="fill:white;fill-rule:nonzero;"/>
        <path d="M358.579,94.882L363.054,90.407L367.529,94.882L363.054,99.356L358.579,94.882Z" style="fill:rgb(210,34,41);fill-rule:nonzero;"/>
        <path d="M379.4,101.523L377.64,99.746L377.64,90.067L379.4,88.29L385.11,88.29L386.942,90.14L386.313,90.804L384.733,89.205L379.813,89.205L378.646,90.391L378.646,99.423L379.813,100.607L384.84,100.607L386.456,98.974L387.103,99.62L385.217,101.523L379.4,101.523Z" style="fill:white;fill-rule:nonzero;"/>
        <path d="M391.017,100.607L396.206,100.607L397.373,99.423L397.373,90.391L396.206,89.205L391.017,89.205L389.85,90.391L389.85,99.423L391.017,100.607ZM390.605,101.523L388.845,99.746L388.845,90.067L390.605,88.29L396.619,88.29L398.379,90.067L398.379,99.746L396.619,101.523L390.605,101.523Z" style="fill:white;fill-rule:nonzero;"/>
        <path d="M404.341,101.523L399.69,88.29L400.732,88.29L404.988,100.553L405.382,100.553L409.638,88.29L410.698,88.29L406.029,101.523L404.341,101.523Z" style="fill:white;fill-rule:nonzero;"/>
        <path d="M412.295,101.523L412.295,88.29L420.716,88.29L420.716,89.241L413.319,89.241L413.319,94.071L419.801,94.071L419.801,95.005L413.319,95.005L413.319,100.571L420.716,100.571L420.716,101.523L412.295,101.523Z" style="fill:white;fill-rule:nonzero;"/>
        <path d="M422.996,101.523L422.996,88.29L424.595,88.29L430.915,99.926L431.149,99.926L431.149,88.29L432.172,88.29L432.172,101.523L430.718,101.523L424.397,89.888L424.02,89.888L424.02,101.523L422.996,101.523Z" style="fill:white;fill-rule:nonzero;"/>
        <path d="M437.901,101.523L437.901,89.241L433.716,89.241L433.716,88.29L443.089,88.29L443.089,89.241L438.906,89.241L438.906,101.523L437.901,101.523Z" style="fill:white;fill-rule:nonzero;"/>
        <path d="M445.658,94.97L450.991,94.97L452.158,93.784L452.158,90.391L450.991,89.205L445.658,89.205L445.658,94.97ZM444.634,101.523L444.634,88.29L451.404,88.29L453.163,90.067L453.163,94.107L451.404,95.885L451.027,95.885L453.684,101.523L452.588,101.523L449.949,95.885L445.658,95.885L445.658,101.523L444.634,101.523Z" style="fill:white;fill-rule:nonzero;"/>
        <path d="M459.196,101.523L459.196,95.777L454.581,88.29L455.712,88.29L459.573,94.574L459.842,94.574L463.685,88.29L464.834,88.29L460.219,95.777L460.219,101.523L459.196,101.523Z" style="fill:white;fill-rule:nonzero;"/>
    </g>
</svg>
