<?xml version="1.0" encoding="UTF-8" standalone="no"?>
<!DOCTYPE svg PUBLIC "-//W3C//DTD SVG 1.1//EN" "http://www.w3.org/Graphics/SVG/1.1/DTD/svg11.dtd">
<svg width="100%" height="100%" viewBox="0 0 377 450" version="1.1" xmlns="http://www.w3.org/2000/svg" xmlns:xlink="http://www.w3.org/1999/xlink" xml:space="preserve" xmlns:serif="http://www.serif.com/" style="fill-rule:evenodd;clip-rule:evenodd;stroke-linejoin:round;stroke-miterlimit:2;">
    <g transform="matrix(4.16667,0,0,4.16667,0,0)">
        <path d="M44.27,0.284L0,25.749L0,59.037L13.621,66.877L13.621,41.411L34.054,53.167L47.678,45.331L20.376,29.667L44.27,15.956L57.894,8.121L44.27,0.284Z" style="fill:rgb(210,34,41);fill-rule:nonzero;"/>
        <path d="M51.08,19.873L74.914,33.58L88.54,25.746L64.702,12.037L51.08,19.873ZM74.918,33.583L74.918,74.71L51.081,88.42L51.081,51.206L37.459,59.039L37.459,88.416L13.593,74.728L0,66.872L0,82.539L44.27,108L88.542,82.543L88.54,25.746L74.918,33.583Z" style="fill:white;fill-rule:nonzero;"/>
    </g>
</svg>
