<?xml version="1.0" encoding="UTF-8" standalone="no"?>
<!DOCTYPE svg PUBLIC "-//W3C//DTD SVG 1.1//EN" "http://www.w3.org/Graphics/SVG/1.1/DTD/svg11.dtd">
<svg width="100%" height="100%" viewBox="0 0 2284 450" version="1.1" xmlns="http://www.w3.org/2000/svg" xmlns:xlink="http://www.w3.org/1999/xlink" xml:space="preserve" xmlns:serif="http://www.serif.com/" style="fill-rule:evenodd;clip-rule:evenodd;stroke-linejoin:round;stroke-miterlimit:2;">
    <g transform="matrix(4.16667,0,0,4.16667,0,0)">
        <path d="M13.62,41.412L34.054,53.168L47.679,45.332L20.375,29.668L44.269,15.956L57.893,8.12L44.269,0.283L0,25.75L0,59.037L13.62,66.877L13.62,41.412Z" style="fill:rgb(210,34,41);fill-rule:nonzero;"/>
        <path d="M88.539,25.746L64.702,12.035L51.079,19.873L74.918,33.582L74.918,74.709L51.08,88.419L51.08,51.205L37.458,59.038L37.458,88.415L13.593,74.728L0,66.871L0,82.538L44.269,108L88.54,82.542L88.539,25.746Z" style="fill:white;fill-rule:nonzero;"/>
        <path d="M537.19,75.814L537.19,46.689L547.111,46.689L547.111,44.432L524.884,44.432L524.884,46.689L534.806,46.689L534.806,75.814L537.19,75.814ZM501.934,75.814L501.934,48.221L502.828,48.221L517.817,75.814L521.266,75.814L521.266,44.432L518.839,44.432L518.839,72.023L518.284,72.023L503.297,44.432L499.507,44.432L499.507,75.814L501.934,75.814ZM494.143,75.814L494.143,73.557L476.6,73.557L476.6,60.356L491.971,60.356L491.971,58.143L476.6,58.143L476.6,46.689L494.143,46.689L494.143,44.432L474.173,44.432L474.173,75.814L494.143,75.814ZM459.312,75.814L470.383,44.432L467.871,44.432L457.78,73.514L456.843,73.514L446.751,44.432L444.282,44.432L455.31,75.814L459.312,75.814ZM442.153,75.814L442.153,73.557L424.61,73.557L424.61,60.356L439.982,60.356L439.982,58.143L424.61,58.143L424.61,46.689L442.153,46.689L442.153,44.432L422.183,44.432L422.183,75.814L442.153,75.814ZM407.068,75.814L407.068,67.425L391.824,67.425L391.824,63.508L405.279,63.508L405.279,56.737L391.824,56.737L391.824,52.82L407.068,52.82L407.068,44.432L379.689,44.432L379.689,75.814L407.068,75.814ZM372.28,75.814L377.006,71.769L377.006,60.059L372.28,56.057L360.23,56.014L360.23,52.564L375.474,52.564L375.474,44.432L353.204,44.432L348.478,48.477L348.478,59.804L353.204,63.806L365.212,63.849L365.212,67.596L349.798,67.596L349.798,75.814L372.28,75.814ZM341.069,75.814L345.796,71.769L345.796,44.432L333.66,44.432L333.66,69.299L327.997,69.299L327.997,44.432L315.862,44.432L315.862,71.769L320.588,75.814L341.069,75.814ZM294.615,50.946L300.789,50.946L300.789,69.299L294.615,69.299L294.615,50.946ZM308.198,75.814L312.924,71.769L312.924,48.477L308.198,44.432L287.206,44.432L282.479,48.477L282.479,71.769L287.206,75.814L308.198,75.814ZM261.359,75.814L261.359,63.806L267.406,63.806L267.406,75.814L279.542,75.814L279.542,44.432L267.406,44.432L267.406,55.46L261.359,55.46L261.359,44.432L249.225,44.432L249.225,75.814L261.359,75.814ZM246.074,75.814L246.074,67.425L230.83,67.425L230.83,63.508L244.285,63.508L244.285,56.737L230.83,56.737L230.83,52.82L246.074,52.82L246.074,44.432L218.695,44.432L218.695,75.814L246.074,75.814ZM197.746,50.946L203.877,50.946L203.877,59.591L197.746,59.591L197.746,50.946ZM197.746,75.814L197.746,66.105L201.833,66.105L205.027,75.814L216.949,75.814L212.819,64.401L215.544,62.103L215.544,48.477L210.818,44.432L185.61,44.432L185.61,75.814L197.746,75.814ZM165.555,51.627L167.344,51.627L169.217,63.466L163.682,63.466L165.555,51.627ZM161.723,75.814L162.447,71.172L170.452,71.172L171.176,75.814L183.865,75.814L176.967,44.432L155.975,44.432L149.034,75.814L161.723,75.814ZM124.977,75.814L127.915,68.532L130.768,75.814L143.797,75.814L150.142,55.545L150.142,44.432L137.964,44.432L136.303,67.894L134.515,67.894L132.854,44.432L122.891,44.432L121.23,67.894L119.484,67.894L117.824,44.432L105.603,44.432L105.603,55.545L111.99,75.814L124.977,75.814Z" style="fill:white;fill-rule:nonzero;"/>
        <path d="M417.924,38.242L422.65,34.197L422.65,22.488L417.924,18.485L405.874,18.443L405.874,14.995L421.118,14.995L421.118,6.861L398.848,6.861L394.122,10.906L394.122,22.232L398.848,26.235L410.856,26.277L410.856,30.024L395.442,30.024L395.442,38.242L417.924,38.242ZM385.862,19.849L391.695,6.861L381.348,6.861L379.219,19.849L385.862,19.849ZM350.947,38.242L353.885,30.961L356.737,38.242L369.767,38.242L376.111,17.975L376.111,6.861L363.933,6.861L362.273,30.322L360.484,30.322L358.824,6.861L348.86,6.861L347.199,30.322L345.454,30.322L343.793,6.861L331.573,6.861L331.573,17.975L337.96,38.242L350.947,38.242ZM310.325,13.377L316.499,13.377L316.499,31.728L310.325,31.728L310.325,13.377ZM323.908,38.242L328.635,34.197L328.635,10.906L323.908,6.861L302.916,6.861L298.19,10.906L298.19,34.197L302.916,38.242L323.908,38.242ZM277.709,13.377L283.841,13.377L283.841,22.02L277.709,22.02L277.709,13.377ZM277.709,38.242L277.709,28.534L281.797,28.534L284.99,38.242L296.913,38.242L292.783,26.832L295.508,24.531L295.508,10.906L290.781,6.861L265.574,6.861L265.574,38.242L277.709,38.242ZM244.625,13.377L250.756,13.377L250.756,22.02L244.625,22.02L244.625,13.377ZM244.625,38.242L244.625,28.534L248.713,28.534L251.906,38.242L263.828,38.242L259.698,26.832L262.423,24.531L262.423,10.906L257.696,6.861L232.49,6.861L232.49,38.242L244.625,38.242ZM211.242,13.377L217.416,13.377L217.416,31.728L211.242,31.728L211.242,13.377ZM224.825,38.242L229.552,34.197L229.552,10.906L224.825,6.861L203.833,6.861L199.107,10.906L199.107,34.197L203.833,38.242L224.825,38.242ZM171.856,38.242L171.856,21.978L176.285,36.284L180.926,36.284L185.269,22.063L185.269,38.242L196.17,38.242L196.17,6.861L184.46,6.861L178.584,22.147L172.708,6.861L160.956,6.861L160.956,38.242L171.856,38.242ZM139.709,13.377L145.883,13.377L145.883,31.728L139.709,31.728L139.709,13.377ZM153.292,38.242L158.018,34.197L158.018,10.906L153.292,6.861L132.3,6.861L127.573,10.906L127.573,34.197L132.3,38.242L153.292,38.242ZM117.737,38.242L117.737,15.25L126.04,15.25L126.04,6.861L97.299,6.861L97.299,15.25L105.602,15.25L105.602,38.242L117.737,38.242Z" style="fill:rgb(210,34,41);fill-rule:nonzero;"/>
        <path d="M107.174,101.523L105.32,99.67L105.986,99.004L107.57,100.605L112.232,100.605L113.42,99.417L113.42,96.268L112.196,94.989L108.254,94.989L108.254,94.071L112.196,94.071L113.42,92.793L113.42,90.363L112.232,89.176L107.858,89.176L106.274,90.777L105.608,90.111L107.444,88.258L112.664,88.258L114.428,90.039L114.428,93.064L113.024,94.522L114.428,95.997L114.428,99.741L112.664,101.523L107.174,101.523Z" style="fill:white;fill-rule:nonzero;"/>
        <path d="M119.018,100.605L123.77,100.605L124.94,99.417L124.94,90.363L123.77,89.176L119.018,89.176L117.848,90.363L117.848,99.417L119.018,100.605ZM118.604,101.523L116.84,99.741L116.84,90.039L118.604,88.258L124.202,88.258L125.948,90.039L125.948,99.741L124.202,101.523L118.604,101.523Z" style="fill:white;fill-rule:nonzero;"/>
        <path d="M132.607,101.523L132.607,88.258L134.209,88.258L140.545,99.922L140.78,99.922L140.78,88.258L141.805,88.258L141.805,101.523L140.347,101.523L134.012,89.859L133.634,89.859L133.634,101.523L132.607,101.523Z" style="fill:white;fill-rule:nonzero;"/>
        <path d="M146.683,100.605L151.886,100.605L153.055,99.417L153.055,90.363L151.886,89.176L146.683,89.176L145.514,90.363L145.514,99.417L146.683,100.605ZM146.269,101.523L144.506,99.741L144.506,90.039L146.269,88.258L152.3,88.258L154.063,90.039L154.063,99.741L152.3,101.523L146.269,101.523Z" style="fill:white;fill-rule:nonzero;"/>
        <path d="M160.021,101.523L155.36,88.258L156.404,88.258L160.67,100.551L161.066,100.551L165.331,88.258L166.393,88.258L161.714,101.523L160.021,101.523Z" style="fill:white;fill-rule:nonzero;"/>
        <path d="M167.995,101.523L167.995,88.258L176.437,88.258L176.437,89.212L169.021,89.212L169.021,94.054L175.519,94.054L175.519,94.989L169.021,94.989L169.021,100.569L176.437,100.569L176.437,101.523L167.995,101.523Z" style="fill:white;fill-rule:nonzero;"/>
        <path d="M178.705,101.523L178.705,88.258L180.325,88.258L184.897,99.85L189.487,88.258L191.089,88.258L191.089,101.523L190.081,101.523L190.081,89.859L189.847,89.859L185.185,101.523L184.609,101.523L179.965,89.859L179.731,89.859L179.731,101.523L178.705,101.523Z" style="fill:white;fill-rule:nonzero;"/>
        <path d="M195.121,100.605L201.061,100.605L202.231,99.417L202.231,96.34L200.935,94.989L195.121,94.989L195.121,100.605ZM195.121,94.054L200.683,94.054L201.457,92.884L201.457,90.363L200.287,89.176L195.121,89.176L195.121,94.054ZM194.095,101.523L194.095,88.258L200.701,88.258L202.465,90.039L202.465,93.136L201.637,94.396L203.257,96.088L203.257,99.741L201.493,101.523L194.095,101.523Z" style="fill:white;fill-rule:nonzero;"/>
        <path d="M205.831,101.523L205.831,88.258L214.273,88.258L214.273,89.212L206.857,89.212L206.857,94.054L213.355,94.054L213.355,94.989L206.857,94.989L206.857,100.569L214.273,100.569L214.273,101.523L205.831,101.523Z" style="fill:white;fill-rule:nonzero;"/>
        <path d="M217.567,94.953L222.913,94.953L224.083,93.766L224.083,90.363L222.913,89.176L217.567,89.176L217.567,94.953ZM216.541,101.523L216.541,88.258L223.327,88.258L225.091,90.039L225.091,94.09L223.327,95.871L222.949,95.871L225.613,101.523L224.515,101.523L221.869,95.871L217.567,95.871L217.567,101.523L216.541,101.523Z" style="fill:white;fill-rule:nonzero;"/>
        <path d="M231.589,101.523L231.589,100.029L239.005,92.199L239.005,90.363L237.817,89.176L233.803,89.176L232.237,90.831L231.553,90.184L233.389,88.258L238.248,88.258L240.013,90.039L240.013,92.596L232.704,100.335L232.704,100.569L240.301,100.569L240.301,101.523L231.589,101.523Z" style="fill:white;fill-rule:nonzero;"/>
        <path d="M244.675,100.605L249.427,100.605L250.597,99.417L250.597,90.363L249.427,89.176L244.675,89.176L243.505,90.363L243.505,99.417L244.675,100.605ZM244.261,101.523L242.497,99.741L242.497,90.039L244.261,88.258L249.859,88.258L251.605,90.039L251.605,99.741L249.859,101.523L244.261,101.523Z" style="fill:white;fill-rule:nonzero;"/>
        <path d="M253.872,101.523L253.872,100.029L261.288,92.199L261.288,90.363L260.1,89.176L256.086,89.176L254.52,90.831L253.836,90.184L255.672,88.258L260.532,88.258L262.296,90.039L262.296,92.596L254.988,100.335L254.988,100.569L262.584,100.569L262.584,101.523L253.872,101.523Z" style="fill:white;fill-rule:nonzero;"/>
        <path d="M264.348,101.523L264.348,100.569L266.653,100.569L266.653,89.212L264.528,89.212L264.528,88.258L267.678,88.258L267.678,100.569L269.983,100.569L269.983,101.523L264.348,101.523Z" style="fill:white;fill-rule:nonzero;"/>
        <path d="M300.941,94.953L306.286,94.953L307.456,93.766L307.456,90.363L306.286,89.176L300.941,89.176L300.941,94.953ZM299.914,101.523L299.914,88.258L306.701,88.258L308.464,90.039L308.464,94.09L306.701,95.871L306.323,95.871L308.987,101.523L307.889,101.523L305.243,95.871L300.941,95.871L300.941,101.523L299.914,101.523Z" style="fill:white;fill-rule:nonzero;"/>
        <path d="M310.894,101.523L310.894,100.569L312.802,100.569L312.802,89.212L310.894,89.212L310.894,88.258L315.718,88.258L315.718,89.212L313.828,89.212L313.828,100.569L315.718,100.569L315.718,101.523L310.894,101.523Z" style="fill:white;fill-rule:nonzero;"/>
        <path d="M319.643,101.523L317.878,99.741L317.878,90.039L319.643,88.258L325.367,88.258L327.202,90.111L326.573,90.777L324.989,89.176L320.057,89.176L318.886,90.363L318.886,99.417L320.057,100.605L325.096,100.605L326.716,98.968L327.365,99.615L325.475,101.523L319.643,101.523Z" style="fill:white;fill-rule:nonzero;"/>
        <path d="M331.288,100.605L336.49,100.605L337.66,99.417L337.66,90.363L336.49,89.176L331.288,89.176L330.118,90.363L330.118,99.417L331.288,100.605ZM330.874,101.523L329.11,99.741L329.11,90.039L330.874,88.258L336.904,88.258L338.668,90.039L338.668,99.741L336.904,101.523L330.874,101.523Z" style="fill:white;fill-rule:nonzero;"/>
        <path d="M341.368,101.523L341.368,88.258L342.395,88.258L342.395,94.054L349.739,94.054L349.739,88.258L350.765,88.258L350.765,101.523L349.739,101.523L349.739,94.989L342.395,94.989L342.395,101.523L341.368,101.523Z" style="fill:white;fill-rule:nonzero;"/>
        <path d="M358.991,96.915L364.733,96.915L362.05,89.23L361.672,89.23L358.991,96.915ZM356.344,101.523L361.006,88.258L362.716,88.258L367.378,101.523L366.317,101.523L365.038,97.852L358.685,97.852L357.407,101.523L356.344,101.523Z" style="fill:white;fill-rule:nonzero;"/>
        <path d="M370.024,94.953L375.369,94.953L376.539,93.766L376.539,90.363L375.369,89.176L370.024,89.176L370.024,94.953ZM368.997,101.523L368.997,88.258L375.784,88.258L377.547,90.039L377.547,94.09L375.784,95.871L375.406,95.871L378.07,101.523L376.972,101.523L374.326,95.871L370.024,95.871L370.024,101.523L368.997,101.523Z" style="fill:white;fill-rule:nonzero;"/>
        <path d="M380.518,101.523L380.518,88.258L388.96,88.258L388.96,89.212L381.544,89.212L381.544,94.054L388.042,94.054L388.042,94.989L381.544,94.989L381.544,100.569L388.96,100.569L388.96,101.523L380.518,101.523Z" style="fill:white;fill-rule:nonzero;"/>
        <path d="M391.227,101.523L391.227,88.258L392.829,88.258L399.165,99.922L399.399,99.922L399.399,88.258L400.425,88.258L400.425,101.523L398.967,101.523L392.631,89.859L392.253,89.859L392.253,101.523L391.227,101.523Z" style="fill:white;fill-rule:nonzero;"/>
        <path d="M404.692,96.915L410.434,96.915L407.751,89.23L407.373,89.23L404.692,96.915ZM402.045,101.523L406.707,88.258L408.417,88.258L413.079,101.523L412.018,101.523L410.74,97.852L404.386,97.852L403.108,101.523L402.045,101.523Z" style="fill:white;fill-rule:nonzero;"/>
        <path d="M443.894,101.523L442.129,99.741L442.129,90.039L443.894,88.258L449.618,88.258L451.453,90.111L450.824,90.777L449.24,89.176L444.308,89.176L443.137,90.363L443.137,99.417L444.308,100.605L449.347,100.605L450.967,98.968L451.616,99.615L449.726,101.523L443.894,101.523Z" style="fill:white;fill-rule:nonzero;"/>
        <path d="M455.54,100.605L460.742,100.605L461.911,99.417L461.911,90.363L460.742,89.176L455.54,89.176L454.369,90.363L454.369,99.417L455.54,100.605ZM455.126,101.523L453.362,99.741L453.362,90.039L455.126,88.258L461.156,88.258L462.92,90.039L462.92,99.741L461.156,101.523L455.126,101.523Z" style="fill:white;fill-rule:nonzero;"/>
        <path d="M468.877,101.523L464.215,88.258L465.259,88.258L469.526,100.551L469.921,100.551L474.188,88.258L475.249,88.258L470.57,101.523L468.877,101.523Z" style="fill:white;fill-rule:nonzero;"/>
        <path d="M476.852,101.523L476.852,88.258L485.294,88.258L485.294,89.212L477.878,89.212L477.878,94.054L484.376,94.054L484.376,94.989L477.878,94.989L477.878,100.569L485.294,100.569L485.294,101.523L476.852,101.523Z" style="fill:white;fill-rule:nonzero;"/>
        <path d="M487.561,101.523L487.561,88.258L489.163,88.258L495.499,99.922L495.733,99.922L495.733,88.258L496.759,88.258L496.759,101.523L495.301,101.523L488.965,89.859L488.587,89.859L488.587,101.523L487.561,101.523Z" style="fill:white;fill-rule:nonzero;"/>
        <path d="M502.484,101.523L502.484,89.212L498.289,89.212L498.289,88.258L507.686,88.258L507.686,89.212L503.492,89.212L503.492,101.523L502.484,101.523Z" style="fill:white;fill-rule:nonzero;"/>
        <path d="M510.242,94.953L515.586,94.953L516.757,93.766L516.757,90.363L515.586,89.176L510.242,89.176L510.242,94.953ZM509.215,101.523L509.215,88.258L516,88.258L517.765,90.039L517.765,94.09L516,95.871L515.623,95.871L518.287,101.523L517.19,101.523L514.543,95.871L510.242,95.871L510.242,101.523L509.215,101.523Z" style="fill:white;fill-rule:nonzero;"/>
        <path d="M523.794,101.523L523.794,95.764L519.169,88.258L520.304,88.258L524.172,94.558L524.444,94.558L528.295,88.258L529.448,88.258L524.822,95.764L524.822,101.523L523.794,101.523Z" style="fill:white;fill-rule:nonzero;"/>
        <path d="M280.367,94.882L284.841,90.407L289.316,94.882L284.841,99.356L280.367,94.882Z" style="fill:rgb(210,34,41);fill-rule:nonzero;"/>
        <path d="M422.65,94.882L427.124,90.407L431.599,94.882L427.124,99.356L422.65,94.882Z" style="fill:rgb(210,34,41);fill-rule:nonzero;"/>
    </g>
</svg>
