<svg width="175" height="200" xmlns="http://www.w3.org/2000/svg">
 <title/>
 <desc/>

 <g>
  <title>background</title>
  <rect fill="none" id="canvas_background" height="202" width="177" y="-1" x="-1"/>
 </g>
 <g>
  <title>Layer 1</title>
  <path fill="#ffffff" stroke="null" id="Shape" d="m87.500004,16.500504c-46.749717,0 -84.999485,37.574774 -84.999485,83.499498c0,45.924724 38.249768,83.499498 84.999485,83.499498c46.749717,0 84.999485,-37.574774 84.999485,-83.499498c0,-45.924724 -38.249768,-83.499498 -84.999485,-83.499498l0,0zm0,150.299097c-37.399773,0 -67.999588,-30.059819 -67.999588,-66.799599c0,-36.739779 30.599815,-66.799599 67.999588,-66.799599c37.399773,0 67.999588,30.059819 67.999588,66.799599c0,36.739779 -30.599815,66.799599 -67.999588,66.799599zm4.249974,-108.549348l-12.749923,0l0,50.099699l44.199732,26.719839l6.799959,-10.854935l-38.249768,-22.544865l0,-43.419739z"/>
 </g>
</svg>