<svg width="175" height="200" xmlns="http://www.w3.org/2000/svg">

 <g>
  <title>background</title>
  <rect fill="none" id="canvas_background" height="202" width="177" y="-1" x="-1"/>
 </g>
 <g>
  <title>Layer 1</title>
  <path stroke="null" fill="#ffffff" id="svg_2" d="m166.529721,69.206838l-76.281309,-54.201004c-1.714719,-1.220394 -3.775293,-1.220394 -5.490012,0l-76.281309,54.201004c-1.940435,1.380208 -3.130909,4.092195 -3.07994,7.017267c0.050968,2.925072 1.336097,5.559574 3.320219,6.818711l17.387464,11.00292l0,66.516332c0,9.027044 6.789703,15.560027 20.75137,19.981535c10.921774,3.457784 25.356718,5.365861 40.643561,5.365861s29.718147,-1.903234 40.643561,-5.365861c13.965308,-4.421508 20.75137,-10.959335 20.75137,-19.981535l0,-66.521175l6.946248,-4.397294l0,29.991674c0,4.281066 2.606663,7.748535 5.824946,7.748535s5.824946,-3.46747 5.824946,-7.748535l0,-37.628824c1.281488,-1.414108 2.071496,-3.511055 2.111543,-5.787187c0.058249,-2.920229 -1.135864,-5.637059 -3.072659,-7.012424zm-29.281276,90.217164c-1.190473,1.370522 -5.344388,4.382765 -15.02108,6.973682c-9.636645,2.581231 -21.970968,4.005024 -34.72396,4.005024s-25.087315,-1.423793 -34.72396,-4.005024c-9.673051,-2.590916 -13.830606,-5.608002 -15.02108,-6.973682l0,-58.012315l47.243953,29.89966c0.790008,0.498812 1.645547,0.750639 2.501086,0.750639s1.711078,-0.251827 2.501086,-0.750639l47.243953,-29.89966l0,58.012315zm3.356625,-77.296482c-0.010922,0.004843 -0.021844,0.009686 -0.032765,0.019371l-53.068899,33.585057l-53.068899,-33.585057c-0.010922,-0.004843 -0.021844,-0.009686 -0.032765,-0.019371l-10.251905,-6.489398l63.35357,-45.014147l63.35357,45.014147l-10.251905,6.489398z" class="st0"/>
 </g>
</svg>