<svg width="175" height="200" xmlns="http://www.w3.org/2000/svg">

 <g>
  <title>background</title>
  <rect fill="none" id="canvas_background" height="202" width="177" y="-1" x="-1"/>
 </g>
 <g>
  <title>Layer 1</title>
  <path stroke="null" id="svg_1" fill="#ffffff" d="m113.054257,111.258063c13.988434,-9.875348 23.364512,-27.536628 23.364512,-47.703187c0,-30.908474 -21.946514,-56.054601 -48.918771,-56.054601s-48.91877,25.146127 -48.91877,56.054601c0,20.166559 9.376078,37.827839 23.364512,47.703187c-30.204775,7.763348 -51.399628,28.970605 -51.399628,54.635193c0,21.002139 48.374172,26.606466 76.953886,26.606466s76.953887,-5.604327 76.953887,-26.606466c0,-25.664588 -21.194853,-46.871845 -51.399628,-54.635193zm-64.395342,-47.703187c0,-24.532545 17.426,-44.492135 38.841083,-44.492135s38.841084,19.95959 38.841084,44.492135s-17.426,44.488436 -38.841084,44.488436s-38.841083,-19.955813 -38.841083,-44.488436zm38.841083,117.382381c-41.083301,0 -65.675544,-9.943566 -66.87331,-15.083082c0.031106,-25.504564 30.019816,-46.248397 66.87331,-46.248397c36.8498,0 66.836024,20.740056 66.872908,46.24092c-1.167802,5.135738 -25.762531,15.090559 -66.872908,15.090559z"/>
 </g>
</svg>