<?xml version="1.0" encoding="UTF-8" standalone="no"?>
<!DOCTYPE svg PUBLIC "-//W3C//DTD SVG 1.1//EN" "http://www.w3.org/Graphics/SVG/1.1/DTD/svg11.dtd">
<svg width="100%" height="100%" viewBox="0 0 400 200" version="1.1" xmlns="http://www.w3.org/2000/svg" xmlns:xlink="http://www.w3.org/1999/xlink" xml:space="preserve" xmlns:serif="http://www.serif.com/" style="fill-rule:evenodd;clip-rule:evenodd;stroke-linejoin:round;stroke-miterlimit:2;">
    <g transform="matrix(1.99513,0,0,1.99513,200,100)">
        <g id="elokon-logo.svg" transform="matrix(1,0,0,1,-79.625,-11.8525)">
            <clipPath id="_clip1">
                <rect x="0" y="0" width="159.25" height="23.705"/>
            </clipPath>
            <g clip-path="url(#_clip1)">
                <path d="M0.396,6.17L0.396,17.533C0.396,22.636 3.312,23.323 6.166,23.323L23.756,23.323L23.756,18.593L7.286,18.593C5.713,18.593 5.586,18.479 5.586,17.063L5.586,14.217L22.591,14.217L22.591,9.487L5.586,9.487L5.586,6.641C5.586,5.167 5.778,5.111 7.286,5.111L23.755,5.111L23.755,0.38L6.165,0.38C2.121,0.38 0.396,2.111 0.396,6.17Z" style="fill:rgb(153,153,154);fill-rule:nonzero;"/>
                <path d="M32.449,17.062L32.449,0.38L27.259,0.38L27.259,17.533C27.259,21.592 28.998,23.323 33.073,23.323L47.187,23.323L47.187,18.593L34.114,18.593C32.638,18.592 32.449,18.507 32.449,17.062Z" style="fill:rgb(153,153,154);fill-rule:nonzero;"/>
                <path d="M102.987,0.38L95.759,0.38L82.945,11.407L82.945,0.38L77.754,0.38L77.754,23.323L82.945,23.323L82.945,17.768L87.796,13.591L97.291,23.323L104.165,23.323L91.511,10.326L102.987,0.38Z" style="fill:rgb(153,153,154);fill-rule:nonzero;"/>
                <path d="M116.991,14.7L115.838,14.7C113.409,14.7 113.212,13.411 113.212,11.852C113.212,10.293 113.409,9.004 115.838,9.004L116.991,9.004C119.419,9.004 119.617,10.293 119.617,11.852C119.617,13.411 119.419,14.7 116.991,14.7Z" style="fill:rgb(255,233,10);fill-rule:nonzero;"/>
                <path d="M153.414,0.38L153.414,16.865C153.414,16.935 153.412,16.988 153.406,17.026L153.255,17.032C153.092,16.963 152.644,16.433 152.207,15.921L142.252,3.57C140.488,1.473 139.487,0.38 137.763,0.38L136.638,0.38C134.378,0.38 133.081,1.83 133.079,4.359L133.079,23.323L138.269,23.323L138.269,6.838C138.269,6.768 138.272,6.715 138.278,6.677L138.429,6.671C138.59,6.74 139.038,7.268 139.472,7.778L149.431,20.132C151.196,22.229 152.196,23.322 153.921,23.322L155.046,23.322C157.307,23.322 158.603,21.872 158.603,19.343L158.603,0.38L153.414,0.38Z" style="fill:rgb(153,153,154);fill-rule:nonzero;"/>
                <g>
                    <path d="M109.446,16.979C108.506,15.673 108.37,13.853 108.37,11.853C108.37,7.939 108.866,4.7 114.967,4.7L117.863,4.7C119.267,4.7 120.363,4.879 121.236,5.19L124.91,1.517C123.081,0.508 120.741,0 117.862,0L114.966,0C106.94,0 103.038,3.877 103.038,11.853C103.038,15.727 103.967,18.625 105.833,20.591L109.446,16.979Z" style="fill:rgb(153,153,154);fill-rule:nonzero;"/>
                    <path d="M126.994,3.114L123.383,6.726C124.322,8.032 124.458,9.852 124.458,11.852C124.458,15.766 123.962,19.005 117.862,19.005L114.966,19.005C113.562,19.005 112.466,18.826 111.594,18.515L107.92,22.189C109.748,23.197 112.086,23.705 114.966,23.705L117.862,23.705C125.887,23.705 129.79,19.828 129.79,11.852C129.79,7.979 128.861,5.08 126.994,3.114Z" style="fill:rgb(153,153,154);fill-rule:nonzero;"/>
                </g>
                <g>
                    <path d="M54.114,16.979C53.175,15.673 53.039,13.853 53.039,11.853C53.039,7.939 53.535,4.7 59.635,4.7L62.531,4.7C63.936,4.7 65.033,4.879 65.905,5.19L69.578,1.517C67.75,0.508 65.41,0 62.53,0L59.634,0C51.61,0 47.709,3.877 47.709,11.853C47.709,15.727 48.638,18.625 50.503,20.591L54.114,16.979Z" style="fill:rgb(153,153,154);fill-rule:nonzero;"/>
                    <path d="M71.663,3.114L68.051,6.726C68.992,8.032 69.126,9.852 69.126,11.852C69.126,15.766 68.631,19.005 62.53,19.005L59.634,19.005C58.231,19.005 57.134,18.826 56.262,18.515L52.589,22.188C54.416,23.197 56.755,23.705 59.634,23.705L62.53,23.705C70.556,23.705 74.458,19.828 74.458,11.852C74.458,7.979 73.529,5.08 71.663,3.114Z" style="fill:rgb(153,153,154);fill-rule:nonzero;"/>
                </g>
            </g>
        </g>
        <g id="elokon-logo.svg1" serif:id="elokon-logo.svg">
        </g>
    </g>
</svg>
