<?xml version="1.0" encoding="UTF-8" standalone="no"?>
<!DOCTYPE svg PUBLIC "-//W3C//DTD SVG 1.1//EN" "http://www.w3.org/Graphics/SVG/1.1/DTD/svg11.dtd">
<svg width="100%" height="100%" viewBox="0 0 400 200" version="1.1" xmlns="http://www.w3.org/2000/svg" xmlns:xlink="http://www.w3.org/1999/xlink" xml:space="preserve" xmlns:serif="http://www.serif.com/" style="fill-rule:evenodd;clip-rule:evenodd;stroke-linejoin:round;stroke-miterlimit:2;">
    <g transform="matrix(0.229864,0,0,0.229864,200,100)">
        <g id="Tomorros-Warehouse-Sponsors" serif:id="Tomorros Warehouse Sponsors">
            <g id="toyota.svg" transform="matrix(1,0,0,1,-653.5,-253.5)">
                <g transform="matrix(0.1,0,0,-0.1,0,507)">
                    <path d="M2066,5060C1965,5044 1894,5022 1818,4984C1655,4902 1526,4772 1450,4616C1383,4477 1366,4392 1373,4231C1379,4084 1395,4016 1450,3904C1569,3660 1797,3495 2065,3459C2295,3429 2537,3506 2708,3665C2893,3837 2980,4052 2967,4300C2960,4426 2942,4498 2890,4608C2761,4879 2511,5045 2205,5064C2161,5067 2098,5065 2066,5060ZM2343,4727C2468,4665 2564,4540 2599,4396C2614,4334 2615,4200 2601,4140C2572,4017 2531,3942 2449,3865C2238,3668 1916,3736 1783,4005C1735,4101 1712,4252 1730,4350C1757,4497 1825,4614 1926,4686C2015,4750 2084,4771 2187,4767C2257,4764 2279,4759 2343,4727Z" style="fill:rgb(187,0,30);fill-rule:nonzero;"/>
                    <path d="M5215,5060C4944,5018 4723,4857 4604,4615C4542,4487 4526,4419 4525,4275C4525,4134 4546,4031 4595,3923C4818,3437 5430,3301 5842,3645C6043,3813 6152,4087 6120,4345C6105,4465 6086,4529 6034,4630C5951,4793 5836,4903 5665,4986C5529,5053 5353,5081 5215,5060ZM5498,4729C5815,4574 5863,4072 5583,3844C5504,3779 5434,3756 5320,3755C5234,3755 5219,3758 5157,3787C5075,3826 4984,3913 4946,3989C4907,4064 4880,4181 4880,4268C4880,4451 4971,4623 5115,4709C5195,4757 5250,4771 5348,4766C5417,4763 5443,4757 5498,4729Z" style="fill:rgb(187,0,30);fill-rule:nonzero;"/>
                    <path d="M0,5010L0,4730L470,4730L470,3490L810,3490L810,4730L1280,4730L1280,5010L0,5010Z" style="fill:rgb(187,0,30);fill-rule:nonzero;"/>
                    <path d="M2990,5006C2990,5004 3121,4794 3280,4541L3570,4080L3570,3490L3920,3490L3920,4072L4034,4254C4096,4353 4229,4564 4328,4723L4509,5010L4309,5008L4109,5005L3932,4698C3835,4530 3753,4389 3750,4387C3747,4384 3664,4523 3565,4695L3385,5009L3188,5010C3079,5010 2990,5008 2990,5006Z" style="fill:rgb(187,0,30);fill-rule:nonzero;"/>
                    <path d="M6230,5010L6230,4730L6700,4730L6700,3490L7040,3490L7040,4730L7510,4730L7510,5010L6230,5010Z" style="fill:rgb(187,0,30);fill-rule:nonzero;"/>
                    <path d="M7982,4938C7824,4554 7494,3755 7393,3513C7389,3503 7432,3500 7588,3500L7787,3500L7915,3840L8225,3837L8535,3835L8599,3668L8663,3500L9060,3500L9051,3523C9046,3535 8969,3721 8880,3935C8792,4150 8656,4479 8578,4668L8437,5010L8012,5010L7982,4938ZM8330,4371C8385,4226 8430,4106 8430,4104C8430,4102 8338,4100 8225,4100C8112,4100 8020,4103 8020,4107C8020,4112 8157,4473 8215,4623C8219,4633 8224,4639 8226,4637C8228,4635 8275,4515 8330,4371Z" style="fill:rgb(187,0,30);fill-rule:nonzero;"/>
                    <path d="M10,2740L10,2450L13070,2450L13070,2740L10,2740Z" style="fill:rgb(189,188,188);fill-rule:nonzero;"/>
                    <path d="M12525,940C12295,909 12150,731 12150,478C12150,375 12165,309 12208,227C12248,150 12307,92 12385,55C12458,21 12511,11 12616,10C12742,10 12823,36 12943,114L12990,145L12990,490L12600,490L12600,380L12870,380L12870,210L12825,181C12684,91 12474,103 12368,207C12247,325 12245,607 12364,747C12428,823 12579,859 12693,826C12764,805 12823,755 12846,694C12864,647 12872,644 12931,662C12955,669 12970,679 12970,689C12969,710 12936,784 12909,822C12846,910 12680,961 12525,940Z" style="fill:rgb(35,31,32);fill-rule:nonzero;"/>
                    <path d="M60,930L60,20L180,20L180,398C180,605 184,768 189,760C193,752 252,582 320,382L443,19L555,25L805,745L808,383L810,20L930,20L930,931L766,925L504,161L376,546L248,930L60,930Z" style="fill:rgb(35,31,32);fill-rule:nonzero;"/>
                    <path d="M1367,918C1258,638 1030,38 1030,30C1030,23 1052,20 1092,22L1154,25L1205,160L1255,295L1442,298L1628,300L1679,169C1707,97 1730,34 1730,29C1730,24 1762,20 1800,20C1839,20 1870,23 1870,28C1870,32 1788,236 1688,483L1505,930L1439,930C1395,930 1370,926 1367,918ZM1483,690C1508,621 1542,528 1559,483L1589,400L1291,400L1317,468C1367,599 1430,785 1430,804C1430,835 1436,822 1483,690Z" style="fill:rgb(35,31,32);fill-rule:nonzero;"/>
                    <path d="M1810,930L1810,820L2100,820L2102,423L2105,25L2168,22L2230,19L2230,820L2530,820L2530,930L1810,930Z" style="fill:rgb(35,31,32);fill-rule:nonzero;"/>
                    <path d="M2650,930L2650,20L3330,20L3330,130L2769,130L2772,283L2775,435L3028,438L3281,440L3278,493L3275,545L3023,548L2770,550L2770,820L3310,820L3310,930L2650,930Z" style="fill:rgb(35,31,32);fill-rule:nonzero;"/>
                    <path d="M3500,930L3500,20L3620,20L3620,420L3723,420C3800,420 3833,416 3860,402C3904,380 3964,305 4065,146L4144,20L4218,20C4279,20 4291,23 4286,35C4283,43 4242,109 4196,182C4110,316 4059,378 4006,416L3977,437L4016,444C4083,455 4151,500 4185,554C4209,594 4215,616 4218,674C4221,737 4218,751 4193,800C4158,867 4105,906 4031,920C4002,925 3870,930 3739,930L3500,930ZM3987,815C4083,787 4120,707 4078,622C4040,545 4010,536 3798,532L3620,528L3620,830L3778,830C3890,830 3951,826 3987,815Z" style="fill:rgb(35,31,32);fill-rule:nonzero;"/>
                    <path d="M4430,930L4430,20L4550,20L4550,930L4430,930Z" style="fill:rgb(35,31,32);fill-rule:nonzero;"/>
                    <path d="M5001,908C4986,869 4709,149 4684,82L4660,19L4726,22L4793,25L4843,162L4893,300L5267,300L5373,20L5441,20C5479,20 5510,23 5510,28C5509,32 5427,235 5327,480L5144,925L5077,928C5015,931 5009,929 5001,908ZM5193,493L5228,400L5079,400C4997,400 4930,402 4930,404C4930,406 4954,472 4984,551C5014,630 5046,723 5056,758L5074,821L5116,703C5139,638 5173,543 5193,493Z" style="fill:rgb(35,31,32);fill-rule:nonzero;"/>
                    <path d="M5600,930L5600,20L6170,20L6170,130L5720,130L5720,930L5600,930Z" style="fill:rgb(35,31,32);fill-rule:nonzero;"/>
                    <path d="M6620,930L6620,20L6740,20L6740,450L7210,450L7210,20L7330,20L7330,930L7210,930L7210,560L6740,560L6740,930L6620,930Z" style="fill:rgb(35,31,32);fill-rule:nonzero;"/>
                    <path d="M7771,908C7741,832 7456,88 7444,57L7431,19L7563,25L7613,162L7663,300L8037,300L8143,20L8212,20C8274,20 8281,22 8276,38C8273,47 8190,251 8092,490L7914,925L7847,928C7785,931 7779,929 7771,908ZM7963,493L7998,400L7849,400C7767,400 7700,402 7700,405C7700,407 7720,460 7743,522C7788,638 7823,742 7835,795C7841,822 7847,812 7885,705C7908,639 7943,543 7963,493Z" style="fill:rgb(35,31,32);fill-rule:nonzero;"/>
                    <path d="M8372,478L8375,25L8432,22L8490,19L8492,372L8495,725L8965,21L9028,20L9090,20L9090,930L8970,930L8968,584L8965,238L8499,930L8370,930L8372,478Z" style="fill:rgb(35,31,32);fill-rule:nonzero;"/>
                    <path d="M9290,932L9290,20L9483,20C9757,20 9836,38 9918,122C10001,205 10040,319 10040,477C10040,689 9973,823 9832,892L9765,925L9528,928L9290,932ZM9783,787C9875,733 9912,645 9913,485C9913,307 9870,206 9773,159C9730,138 9708,135 9568,132L9410,128L9410,822L9573,819C9729,815 9737,814 9783,787Z" style="fill:rgb(35,31,32);fill-rule:nonzero;"/>
                    <path d="M10200,930L10200,20L10770,20L10770,130L10320,130L10320,930L10200,930Z" style="fill:rgb(35,31,32);fill-rule:nonzero;"/>
                    <path d="M10930,930L10930,20L11050,20L11050,930L10930,930Z" style="fill:rgb(35,31,32);fill-rule:nonzero;"/>
                    <path d="M11260,930L11260,20L11380,20L11382,371L11385,723L11619,371L11853,20L11980,20L11980,930L11860,930L11860,226L11386,930L11260,930Z" style="fill:rgb(35,31,32);fill-rule:nonzero;"/>
                </g>
            </g>
            <g id="toyota.svg1" serif:id="toyota.svg">
            </g>
        </g>
    </g>
</svg>
